<?xml version="1.0" encoding="UTF-8"?>
<svg version="1.1" viewBox="0 0 2048 441" width="1076" height="232" xmlns="http://www.w3.org/2000/svg">
<path transform="translate(1399,15)" d="m0 0 10 3 30 14 31 14 15 7v-14h22v25l9 3 18 8 26 12 25 11 11 5v49l-1 1h-15l-1-1v-38l-9-3-53-24-24-11-29-13-61-28-7 1-25 12-58 27-34 16-56 26h-4l-6-13v-2l34-16 28-13 19-9 28-13 10-5 48-22z" fill="#3C3D8F"/>
<path transform="translate(1217,140)" d="m0 0h48l20 3 12 5 7 7 4 10 1 12-2 10-3 6-5 6-12 6-4 1 8 3 12 6 6 7 4 9v19l-4 10-6 8-9 6-10 4-5 1h-62zm16 14-1 13v21l1 12h41l10-4 6-7 2-6v-13l-5-9-10-5-8-2zm0 60-1 3v47l1 2h39l10-3 9-6 4-8 1-4v-12l-4-9-7-6-8-3-7-1z" fill="#3D3E90"/>
<path transform="translate(1920,174)" d="m0 0h20l10 4 6 4 5 6v2l5-5 10-7 10-4h20l11 4 8 7 5 10 1 5v79l-15 1-1-4-1-75-3-6-1-3-5-2-7-2h-9l-9 2-6 4-6 9-2 10-1 66-7 1h-8l-1-1-1-74-4-11-5-4-8-2h-9l-11 3-7 8-3 8-1 4-1 14v54l-15 1-1-1v-104h12l2 7 1 6 7-6 9-6z" fill="#020206"/>
<path transform="translate(378,174)" d="m0 0h19l10 4 6 4 6 8 5-5 7-6 9-4 4-1h19l11 4 9 8 4 10 2 11v72h-16l-1-74-4-10-5-5-7-2h-11l-10 3-6 5-4 8-2 10-1 65h-16l-1-76-5-10-4-3-7-2h-11l-10 3-7 8-4 11-1 6-1 63h-15v-104h13l1 6v8l8-7 10-6z" fill="#3B3C8F"/>
<path transform="translate(1135,174)" d="m0 0h20l12 5 8 6 7 10 4 10 2 16v10l-72 1 3 16 5 10 10 7 7 2h19l14-3 9-3v15l-16 5-7 1h-21l-14-4-10-7-8-9-6-13-2-11v-18l3-16 7-13 6-7 11-7zm4 13-9 3-7 6-5 10-2 12 2 1h49l3-1v-10l-3-9-7-8-6-3-4-1z" fill="#020206"/>
<path transform="translate(49,174)" d="m0 0h19l11 4 8 6 7 8 4 8 3 11v20h-72l3 16 5 10 7 6 10 4h21l16-4 6-1v13l-2 2-15 4-7 1h-19l-12-3-10-5-9-9-5-8-5-16v-25l4-14 6-11 7-8 12-7zm3 13-10 4-7 8-5 12-1 7 1 1h53l1-1v-9l-4-11-7-8-9-3z" fill="#3B3C8F"/>
<path transform="translate(1421,174)" d="m0 0h19l11 4 8 6 6 7 5 9 3 17v14h-72l2 14 6 12 7 6 6 3 4 1h21l16-4 5-2 1 1v13l-9 4-15 3h-20l-14-4-9-6-8-8-7-14-2-10-1-13 3-21 7-14 9-10 14-7zm3 13-8 3-8 7-6 12-1 9 1 1h53l1-1-1-13-5-10-6-5-8-3z" fill="#3C3D8F"/>
<path transform="translate(552,174)" d="m0 0h19l10 4 8 5 7 8 5 10 2 7 1 8v15h-72l2 14 4 10 3 3v2l12 6 4 1h20l14-3 5-2h3v14l-16 5-7 1h-20l-12-3-10-6-5-5-6-7-4-8-3-13v-23l2-11 7-14 9-10 14-7zm3 13-9 3-8 8-5 12-1 9h54l1-1v-7l-3-11-7-9-10-4z" fill="#3B3C8F"/>
<path transform="translate(870,174)" d="m0 0h21l14 5 8 6 7 8 6 13 3 17v10l-3 18-6 12-10 11-10 5-11 3h-18l-13-4-11-8-6-8-5-10-3-11-1-16 2-16 5-13 6-8 9-8 12-5zm6 13-9 2-9 6-5 8-4 14v22l5 16 8 9 5 3 10 2h8l11-3 10-9 4-8 2-11v-20l-2-11-6-10-8-7-12-3z" fill="#030307"/>
<path transform="translate(1796,174)" d="m0 0h22l13 5 8 6 8 9 5 11 2 9 1 9v11l-3 17-7 14-9 9-12 6-9 2h-18l-12-4-9-6-9-10-6-13-2-9v-24l2-10 7-14 9-10 12-6zm6 13-9 2-8 6-4 5-4 8-2 9v21l3 12 5 9 7 6 7 3 6 1h9l10-3 8-6 6-11 2-9v-24l-2-9-5-9-4-5-7-4-9-2z" fill="#020206"/>
<path transform="translate(804,140)" d="m0 0h17l-2 9-13 36-18 50-14 39-2 5-6 1h-10l-4-8-13-37-13-36-8-22v-4h16l5 12 8 23 12 34 4 15 12-36 26-74z" fill="#030307"/>
<path transform="translate(1540,174)" d="m0 0h20l11 4 6 4 6 7 3 9 1 5v76h-16l-1-76-4-9-6-4-8-2h-11l-9 2-6 4-5 6-4 11-1 14-1 54h-15v-104h13l3 14 8-8 12-6z" fill="#3E3F91"/>
<path transform="translate(149,174)" d="m0 0h23l15 4 6 2-3 9-2 4-5-1-16-4h-16l-9 3-4 5v9l6 7 21 9 12 5 10 6 6 7 2 4 1 11-2 10-7 9-8 5-9 3-6 1h-21l-15-3-5-3-1-1v-14l9 3 10 3 6 1h16l10-3 5-5 1-2v-9l-4-6-8-5-14-6-10-4-13-7-6-8-2-5v-13l4-9 7-6 11-5z" fill="#3C3D8F"/>
<path transform="translate(625,175)" d="m0 0h71v13l-14 20-16 23-13 18-9 13-3 4 38 1 19 1v11h-76v-11l12-17 10-14 8-12 13-18 8-12 5-8h-52l-1-1z" fill="#3E3F90"/>
<path transform="translate(1703,174)" d="m0 0h23l13 4 2 1-3 11-1 2-10-2-6-1h-15l-8 3-6 4-5 8-3 9-1 5v20l3 11 5 10 8 6 7 2h16l18-4v13l-1 2-16 4h-20l-15-5-8-6-8-11-5-13-1-6v-25l3-12 6-12 9-10 12-6z" fill="#020207"/>
<path transform="translate(964,151)" d="m0 0h9v24h31v12h-31l1 68 3 7 4 4 5 2h11l7-1v12l-3 2-6 1h-16l-10-4-7-7-4-10-1-4v-70h-14l-1-1v-6l15-8 6-20z" fill="#030308"/>
<path transform="translate(230,151)" d="m0 0h8v24h30v12h-30l1 68 3 8 5 4 4 1h18v11l-4 2-6 1h-14l-11-4-7-7-4-11-1-10v-63h-14l-1-6 4-3 10-5h2l2-10 3-10z" fill="#3B3C8F"/>
<path transform="translate(1065,174)" d="m0 0h19l1 1-1 12-1 3-6-1h-10l-9 3-9 8-4 6-3 11-1 62-15 1-1-1v-104h13l1 1 1 18h2l2-5 5-6 11-7z" fill="#020307"/>
<path transform="translate(290,175)" d="m0 0h16v104h-16z" fill="#3D3E90"/>
<path transform="translate(1341,175)" d="m0 0h15l1 2-1 102h-15z" fill="#3B3C8F"/>
<path transform="translate(1548,349)" d="m0 0h10l13 1v3h-6l2 7-1 7-5 5-12 2-2 2 1 4 16 1 5 3 1 2v9l-4 5-4 2-6 1h-9l-7-2-3-3-1-8 7-7-2-3 1-5 2-3-4-5-1-2v-8l4-6zm3 3-5 3-2 4 1 7 5 4h6l5-5v-8l-4-4zm-6 34-4 5 1 5 5 3h10l6-3 2-2v-6l-2-2z" fill="#3C3D8F"/>
<path transform="translate(763,349)" d="m0 0h10l5 4 8-4h10l5 3 2 4 1 6v13l-1 11h-5l-1-28-4-4h-6l-5 3-1 2-1 27h-5l-1-27-2-4-9-1-5 5-1 3-1 24h-5v-36h4l2 3z" fill="#3B3C8F"/>
<path transform="translate(1098,335)" d="m0 0h6v51l-2 1-4-4-7 4h-9l-6-4-4-7-1-11 3-10 6-5 2-1h10l6 3zm-14 18-5 4-2 6v11l4 7 2 1h10l5-5v-18l-4-5-3-1z" fill="#3B3C8F"/>
<path transform="translate(1271,335)" d="m0 0h5v51l-2 1-2-1v-4l-6 4-3 1h-9l-6-4-4-8-1-9 2-8 4-6 5-3h10l6 4zm-14 18-5 3-3 8v9l4 8 2 1h10l5-5 1-4v-9l-2-7-3-3z" fill="#3C3D8F"/>
<path transform="translate(479,335)" d="m0 0h5l1 18 4-3 3-1h9l5 3 4 5 1 2v17l-4 7-4 3-3 1h-8l-6-3-3-2v4h-4zm13 18-5 3-3 7v9l3 8 3 2h10l5-5 1-4v-11l-3-6-4-3z" fill="#3B3C8F"/>
<path transform="translate(1180,349)" d="m0 0h11l5 3 3 6v28l-2 1-3-2-1-3-5 4-3 1h-9l-4-2-3-6 1-9 5-4 9-2 9-1-2-8-2-1h-7l-8 1-1-3zm2 19-6 3-2 3 1 6 2 2h10l5-4 1-2v-8z" fill="#3B3C8F"/>
<path transform="translate(646,349)" d="m0 0h11l6 4 4 8v8h-26l3 9 4 3h12l5-1 1 3-3 3-4 1h-11l-6-3-5-6-2-6v-8l3-8 5-5zm2 4-5 5-2 3v4h20l-1-7-5-5z" fill="#3B3C8F"/>
<path transform="translate(1297,349)" d="m0 0h10l6 4 4 8v8h-26l4 10 4 2h11l5-1v5l-6 2h-11l-6-3-4-5-2-5v-12l3-7 5-5zm2 4-5 3-2 4v5h19l-1-8-5-4z" fill="#3B3C8F"/>
<path transform="translate(548,349)" d="m0 0h10l6 4 4 8v8h-26l3 9 4 3h12l5-1 1 3-3 3-4 1h-11l-6-3-5-6-2-7 1-11 5-8zm2 4-5 3-3 5v4h20l-1-7-5-5z" fill="#3B3C8F"/>
<path transform="translate(1654,349)" d="m0 0h10l5 3 3 5v29h-5l-1-4-5 4-2 1h-10l-5-4-2-5 1-7 5-5 10-2 8-1-1-7-3-2h-7l-8 1-1-3zm1 19-5 3-2 2v6l3 3h10l5-5 1-6-1-3z" fill="#3B3C8F"/>
<path transform="translate(338,349)" d="m0 0h10l6 3 5 6 1 3v14l-4 7-5 4-3 1h-10l-7-4-4-7-1-4v-9l3-8 6-5zm2 4-6 4-2 5v12l3 6 3 2h10l5-5 2-10-2-9-4-4z" fill="#3C3D90"/>
<path transform="translate(824,349)" d="m0 0h10l6 4 3 4 1 4v8h-26l4 9v2l4 1h17l-1 4-5 2h-12l-7-4-5-10v-10l3-8 6-5zm2 4-6 5-1 7h19l-1-8-5-4z" fill="#3B3C8F"/>
<path transform="translate(1493,349)" d="m0 0h10l7 4 3 6v10h-25l3 9 4 3h11l6-1v5l-7 2h-10l-8-4-4-7-1-4v-8l3-8 4-5zm2 4-5 4-2 4v4h20l-2-9-5-3z" fill="#3B3C8F"/>
<path transform="translate(1388,349)" d="m0 0h10l6 4 4 8v8h-26l3 8 1 3 4 1h11l5-1 1 4-7 3h-11l-6-3-4-5-2-5v-12l3-7 5-5zm2 4-5 3-3 6v3h20v-6l-4-5-2-1z" fill="#3B3C8F"/>
<path transform="translate(1125,349)" d="m0 0h10l6 4 3 5 1 4v7h-26l4 10 4 2h11l5-1 1 3-3 3-4 1h-11l-6-3-5-7-1-3v-13l5-8 3-3zm2 4-5 3-3 9h20l-1-7-5-5z" fill="#3C3D8F"/>
<path transform="translate(1026,349)" d="m0 0h10l5 3 4 6 1 4v7h-26l4 9 4 3h11l5-1 1 3-3 3-3 1h-12l-7-4-5-9v-12l4-8 5-4zm2 4-6 5-2 7h21l-2-9-5-3z" fill="#3C3D8F"/>
<path transform="translate(932,349)" d="m0 0h11l6 3 4 5 2 6v10l-5 10-4 3-3 1h-10l-6-3-5-7-1-3v-13l3-6 6-5zm3 4-5 3-3 4-1 11 3 8 4 3h10l5-5 1-3v-13l-4-6-4-2z" fill="#3C3D8F"/>
<path transform="translate(431,349)" d="m0 0h10l6 3 4 7 1 10h-26l3 9 4 3h12l4-1 1 4-2 2-5 1h-10l-6-3-5-6-1-3v-14l4-8zm2 4-5 4-2 5v3h20l-1-7-5-5z" fill="#3B3C8F"/>
<path transform="translate(1587,349)" d="m0 0h11l6 4 1 2v31h-4v-4l-9 5h-9l-5-3-2-4v-8l4-5 5-2 6-1h9l-2-9-2-1h-7l-8 1v-4zm2 19-6 3-2 6 3 5h10l5-4 1-2v-8z" fill="#3B3C8F"/>
<path transform="translate(1623,257)" d="m0 0h11l5 4 2 5-1 9-5 6-2 1h-9l-5-5-2-5 1-9z" fill="#030308"/>
<path transform="translate(590,349)" d="m0 0h10l5 3 3 4 1 4v14l-1 12h-5l-1-28-2-3-3-1h-7l-4 2-2 4-1 26h-6v-36h5l1 3z" fill="#3D3E90"/>
<path transform="translate(1696,349)" d="m0 0h10l5 3 3 4v30h-5l-1-26-1-5-10-1-5 2-3 8-1 22h-5v-36h5l1 3z" fill="#3C3D8F"/>
<path transform="translate(1430,349)" d="m0 0h10l5 3 3 4v30h-5l-1-28-3-3-2-1-9 1-3 3-1 2-1 26h-5v-36h4l1 3z" fill="#3B3C8F"/>
<path transform="translate(682,349)" d="m0 0h12l5 2-1 4-14-1-4 2 1 5 16 8 3 4v7l-4 5-5 2h-12l-5-3v-4l5 1h13l2-2-1-5-15-8-4-5v-6l5-5z" fill="#3B3C8F"/>
<path transform="translate(288,350)" d="m0 0h6l7 18 4 12 10-28 1-2h6l-3 10-10 25-1 1h-6l-4-9-8-21z" fill="#3C3D8F"/>
<path transform="translate(883,350)" d="m0 0h6l10 29 4-8 7-20 1-1h5l-2 8-7 19-4 9h-7l-13-34z" fill="#3B3C8F"/>
<path transform="translate(1339,350)" d="m0 0h5l4 9 7 19v2h2l1-7 8-22 1-1h5l-1 6-11 29-1 1h-7l-10-26z" fill="#3B3C8F"/>
<path transform="translate(712,340)" d="m0 0 3 1v9h11v3l-10 1v26l1 1 9 1-1 5h-9l-4-2-3-7v-24l-5-1v-2l5-1z" fill="#3D3E90"/>
<path transform="translate(373,340)" d="m0 0h3v10h10v3h-10l1 27 1 1 9 1-2 5h-8l-5-3-2-5v-25l-5-1 2-3h3l2-9z" fill="#3C3D8F"/>
<path transform="translate(1729,340)" d="m0 0 3 1v8l10 1 1 3h-11v19l1 8 1 1 9 1v4l-2 1h-8l-5-3-2-5v-25l-5-1v-2l4-2z" fill="#3E3F90"/>
<path transform="translate(968,340)" d="m0 0 3 1v8l11 1v3h-11v21l1 7 10 1v4l-2 1h-9l-5-5-1-4v-24l-6-1 7-7z" fill="#3B3C8F"/>
<path transform="translate(1463,340)" d="m0 0 3 1v8l10 1 1 3h-11v22l2 6 9 1-1 4-1 1h-8l-4-2-3-6v-25l-5-1v-2l5-3z" fill="#3B3C8F"/>
<path transform="translate(296,136)" d="m0 0 7 1 4 4 1 9-5 6-2 1h-6l-5-4-1-2v-9l4-5z" fill="#3C3D90"/>
<path transform="translate(1346,136)" d="m0 0h6l5 4 1 2v9l-4 5-2 1h-6l-5-4-1-2v-9l2-4z" fill="#3C3D8F"/>
<path transform="translate(407,349)" d="m0 0h8v5l-9 1-4 4-1 3-1 24h-6v-36h5l1 5z" fill="#3C3D8F"/>
<path transform="translate(1155,335)" d="m0 0h5v51h-5z" fill="#3B3C8F"/>
<path transform="translate(1e3 349)" d="m0 0h8l-1 5-10 2-4 7-1 23h-5v-36h4l1 5z" fill="#3B3C8F"/>
<path transform="translate(1630,349)" d="m0 0h8l-1 5-8 1-5 5-1 3-1 23h-5v-36h4v5z" fill="#3B3C8F"/>
<path transform="translate(521,350)" d="m0 0h6v36h-6z" fill="#3B3C8F"/>
<path transform="translate(734,350)" d="m0 0h5v36h-6v-35z" fill="#3B3C8F"/>
<path transform="translate(1750,350)" d="m0 0h6v36h-6z" fill="#484996"/>
<path transform="translate(1211,350)" d="m0 0h5v23l-1 13h-4z" fill="#3B3C8F"/>
<path transform="translate(854,378)" d="m0 0h5l1 2-5 14-5 1 3-16z" fill="#3B3C8F"/>
<path transform="translate(1136,333)" d="m0 0 3 1-6 8-4 3h-2l1-5 4-6z" fill="#3B3C8F"/>
<path transform="translate(836,333)" d="m0 0h2l-2 4-7 8h-3l1-5 5-6z" fill="#3B3C8F"/>
<path transform="translate(1750,336)" d="m0 0h5l1 5-1 2-5-1z" fill="#3B3C8F"/>
<path transform="translate(734,336)" d="m0 0h5v6l-4 1-2-2z" fill="#3B3C8F"/>
<path transform="translate(522,336)" d="m0 0 5 1v5l-4 1-2-1v-5z" fill="#3B3C8F"/>
<path transform="translate(1211,336)" d="m0 0 5 1-1 6-4-1-1-4z" fill="#3B3C8F"/>
</svg>
